<?xml version="1.0" encoding="utf-8"?>
<!DOCTYPE svg PUBLIC "-//W3C//DTD SVG 1.1//EN" "http://www.w3.org/Graphics/SVG/1.1/DTD/svg11.dtd">
<svg version="1.1" xmlns="http://www.w3.org/2000/svg" xmlns:xlink="http://www.w3.org/1999/xlink" width="40" height="40" x="0px" y="0px" viewBox="0 0 1000 1000" enable-background="new 0 0 1000 1000" xml:space="preserve">
<g><path d="M412.6,783.9C199.2,783.9,25.6,610.3,25.6,397c0-213.4,173.6-387,386.9-387c213.4,0,387,173.6,387,387C799.6,610.3,626,783.9,412.6,783.9z M412.6,50.4C221.5,50.4,66.1,205.9,66.1,397c0,191.1,155.5,346.5,346.5,346.5c191.1,0,346.6-155.4,346.6-346.5C759.2,205.9,603.7,50.4,412.6,50.4z"/><path d="M954.2,990c-5.2,0-10.3-2-14.3-5.9L641.3,685.5c-7.9-7.9-7.9-20.7,0-28.6c7.9-7.9,20.7-7.9,28.6,0l298.6,298.6c7.9,7.9,7.9,20.7,0,28.6C964.5,988,959.3,990,954.2,990z"/><path d="M572.4,417.2H252.7c-11.2,0-20.2-9-20.2-20.2c0-11.2,9-20.2,20.2-20.2h319.7c11.2,0,20.2,9,20.2,20.2C592.7,408.1,583.6,417.2,572.4,417.2z"/><path d="M412.6,577.1c-11.2,0-20.2-9-20.2-20.2V237.1c0-11.2,9-20.2,20.2-20.2s20.2,9,20.2,20.2v319.8C432.8,568,423.7,577.1,412.6,577.1z"/></g>
</svg>