<svg xmlns="http://www.w3.org/2000/svg" viewBox="0 0 639.52 128.14"><defs><style>.cls-1{fill:#231f20;}</style></defs><title>Asset 1</title><g id="Layer_2" data-name="Layer 2"><g id="Layer_1-2" data-name="Layer 1"><path class="cls-1" d="M180,0c-30.77,0-55.79,25.33-55.79,56.45s25,56.45,55.79,56.45,55.79-25.33,55.79-56.45S210.76,0,180,0Zm0,102.48c-19.72,0-35.77-20.6-35.77-45.92S160.28,10.63,180,10.63s35.76,20.61,35.76,45.93S199.71,102.48,180,102.48Z"/><rect class="cls-1" x="359.76" y="0.02" width="19.97" height="112.91"/><path class="cls-1" d="M291.89.26,268.36.17h-20V112.86h43c30.73,0,55.72-25.26,55.72-56.31C347.08,25.73,322.35.54,291.89.26Zm-.53,102.23h-23V10.84h23c19.7,0,35.72,20.55,35.72,45.83S311.06,102.49,291.36,102.49Z"/><polygon class="cls-1" points="639.52 0.04 639.52 112.91 619.52 112.91 619.52 61.8 574.1 61.8 574.1 112.87 554.1 112.87 554.1 0.02 574.1 0.02 574.1 51.43 619.52 51.43 619.52 0.04 639.52 0.04"/><path class="cls-1" d="M55.82,57,0,0V112.92H10.47V39.8L37.59,67.46v0L51,81.08v0L61.58,91.94l.1.11a12.51,12.51,0,0,1,3.13,8.31A12.26,12.26,0,0,1,52.7,112.74a11.91,11.91,0,0,1-4.17-.75,16.13,16.13,0,0,1-5.89-26.61l.74-.74h0l2.9-2.95L39,74.19l-3.61,3.66-.26.27a29.9,29.9,0,0,0-2.95,37.43,28.71,28.71,0,0,0,23.43,12.58h.25a28.34,28.34,0,0,0,17.24-5.78A29.35,29.35,0,0,0,84.93,100c0-.16,0-.32,0-.48s0-.5,0-.75v-.09a30.13,30.13,0,0,0-8.7-20.81L63.15,64.46,91.43,35.6v77.32h20.21V0Z"/><path class="cls-1" d="M455.29,72.17a28.71,28.71,0,0,0-5.36-8.55,46.51,46.51,0,0,0-8.53-7.33A127.57,127.57,0,0,0,430,49.41c-2.18-1.17-4.26-2.32-6.26-3.45l-4.2-2.32-.23-.13c-.71-.39-1.4-.8-2.07-1.24l-.32-.19v0a23.33,23.33,0,0,1-8.69-10.17,13.54,13.54,0,0,1-1.17-7,1.28,1.28,0,0,0,0-.17l0-.29a12.6,12.6,0,0,1,.27-1.59,14.8,14.8,0,0,1,4.26-7.42,18.36,18.36,0,0,1,7.3-4.48l.05,0c.46-.16.94-.32,1.43-.46l.69-.2c.49-.13,1-.25,1.49-.36l.18,0a42.57,42.57,0,0,1,16-.08,43.55,43.55,0,0,1,14.15,5V4.51l-2.14-.89C445,1.22,437.78,0,429.38,0a46.4,46.4,0,0,0-13.81,2A35.94,35.94,0,0,0,404,7.91a29.69,29.69,0,0,0-8,9.5,27,27,0,0,0-3,12.8,29.37,29.37,0,0,0,1.59,10,25.8,25.8,0,0,0,5,8.32,45.73,45.73,0,0,0,8.23,7.06c3.14,2.14,7,4.47,11.43,6.9,3.83,2.14,7.23,4.1,10.16,5.87,5.59,2.81,9.93,7.19,11.93,12a13.73,13.73,0,0,1,1.16,7.1.38.38,0,0,0,0,.1l0,.25a12.43,12.43,0,0,1-.27,1.62,14.86,14.86,0,0,1-3.68,6.84,15.23,15.23,0,0,1-3.79,3.08A26.19,26.19,0,0,1,420.32,103a46.23,46.23,0,0,1-9.38-.69c-7.46-1.31-13.92-4.23-18.35-7.89v11.3l1.62,1a26.16,26.16,0,0,0,5.75,2.62,67.73,67.73,0,0,0,6.85,1.88,70.34,70.34,0,0,0,7.06,1.19A53.42,53.42,0,0,0,434.49,111a35.14,35.14,0,0,0,11.79-5.63,26.54,26.54,0,0,0,8-9.73,30.3,30.3,0,0,0,2.84-13.36A27.49,27.49,0,0,0,455.29,72.17Z"/><polygon class="cls-1" points="541.38 102.52 489.63 102.52 489.63 61.72 532.49 61.72 532.49 51.38 489.63 51.38 489.63 10.73 541.36 10.73 541.36 0.09 489.63 0.02 469.57 0.01 469.57 112.92 487.17 112.92 487.18 112.93 541.38 112.93 541.38 102.52"/></g></g></svg>