<svg xmlns="http://www.w3.org/2000/svg" viewBox="0 0 641.93 136.45"><defs><style>.cls-1{fill:#231f20;}</style></defs><title>Asset 2</title><g id="Layer_2" data-name="Layer 2"><g id="Layer_1-2" data-name="Layer 1"><path class="cls-1" d="M536.35,88.13l-9,10.17c-8.6-.36-19.78-4.06-29.85-18.22,0,0-5.18,18.22-30.1,18.22H450.39V88.13h19.38c12.44,0,19.17-10.57,16.49-21.06-1.32-5.18-9.05-16.07-11.05-19-7.76-11.28-19.4-28.57-19.4-28.57l12.58-8.7s39.21,58.36,43,63.3C516.33,80.63,520.72,88.13,536.35,88.13Z"/><path class="cls-1" d="M69.53,98.3H32C8,98.3,0,83,0,70.54,0,63.8.72,54.68,11.9,38.59,21.31,25,38.31,0,38.31,0L51.84,11.17s-24,34.76-31.59,46.76c-2,3.2-5.15,7.63-5.15,14.38,0,8.31,6,14.7,15.63,14.7H59.4Z"/><rect class="cls-1" x="527.4" y="88.13" width="15.88" height="10.17"/><rect class="cls-1" x="116.31" y="88.13" width="53.34" height="10.17"/><path class="cls-1" d="M439,88.13h11.44V98.3H439c-1.38,0-2.84-.06-4.48-.19l-1-.09V87.61l1.26.19A28.29,28.29,0,0,0,439,88.13Z"/><path class="cls-1" d="M399.89,23.87V72.79a15.34,15.34,0,0,1-15.34,15.34H349.5a17.61,17.61,0,0,1-17.61-17.61l-13.66,12A36.17,36.17,0,0,0,348.09,98.3h43a28.8,28.8,0,0,0,28.8-28.8V23.87Z"/><path class="cls-1" d="M311.89,23.87V72.79a15.34,15.34,0,0,1-15.34,15.34H286a17.61,17.61,0,0,1-17.61-17.61l-13.66,12A36.17,36.17,0,0,0,284.55,98.3h18.54a28.8,28.8,0,0,0,28.8-28.8V23.87Z"/><path class="cls-1" d="M248.35,23.87V72.79A15.34,15.34,0,0,1,233,88.13H222.42a17.61,17.61,0,0,1-17.61-17.61l-13.66,12A36.17,36.17,0,0,0,221,98.3h18.54a28.8,28.8,0,0,0,28.8-28.8V23.87Z"/><path class="cls-1" d="M184.81,23.87V72.79a15.34,15.34,0,0,1-15.34,15.34h.18V98.3H176a28.8,28.8,0,0,0,28.8-28.8V23.87Z"/><path class="cls-1" d="M120.68,88.13H105c-9.69,0-15.62-5.25-22.57-13.07C71.7,63,47,35.16,47,35.16L37.78,48.21S62.3,76.08,71.65,85.6,90.7,98.3,108,98.3h12.7Z"/><rect class="cls-1" x="342.76" y="121.13" width="52.61" height="15.32"/><path class="cls-1" d="M551.24,9.37h0l-.36-.92a13.58,13.58,0,0,0-1.32-2.33A13.9,13.9,0,0,0,528.1,4.2a13.49,13.49,0,0,0-1.58,1.93A14.62,14.62,0,0,0,524,15.05a14.44,14.44,0,0,0,4,9.29l.13.14,3,3-8.85,8.9v0l6.7,7.32L548,24.49A14.53,14.53,0,0,0,551.24,9.37Z"/><path class="cls-1" d="M632.35,48.48C618.6,34.6,593.9,9.56,593.9,9.56L579.79,25,616.13,61.3c10.58,10.58,3.94,21-2.94,22.93-7.87,2.23-16.35-2.94-18.23-13.29-1.05-5.8,1.48-10.49,3.9-13.49L587,45.71c-5.6,6.3-16.66,18.68-23.39,25.82l-.16.17c-2,2.07-3.53,3.69-4.48,4.55l-.07.06c-7,7.14-10.14,11.82-24.8,11.82l4.58,10.17c.55,0,6.9,0,7.25,0,8.22-.26,13.63-3.53,19.15-7.37,5.77-4,12-11.05,18.48-18.11,3.28,26.93,30.56,33.39,46,22.22S646.11,62.35,632.35,48.48Z"/></g></g></svg>